<?xml version="1.0" encoding="UTF-8"?>
<svg id="Capa_2" data-name="Capa 2" xmlns="http://www.w3.org/2000/svg" viewBox="0 0 90.51 104.44">
  <defs>
    <style>
      .cls-1 {
        fill: #374151;
      }
    </style>
  </defs>
  <g id="Capa_1-2" data-name="Capa 1">
    <g>
      <path class="cls-1" d="M.03,28.64V.64h13.48c2.61,0,4.87.43,6.78,1.28,1.91.85,3.38,2.07,4.42,3.66,1.04,1.59,1.56,3.46,1.56,5.62s-.52,4.03-1.56,5.6-2.51,2.79-4.42,3.66c-1.91.87-4.17,1.3-6.78,1.3H5.27l4.2-4.04v10.92H.03ZM9.47,18.76l-4.2-4.28h7.64c1.31,0,2.27-.29,2.9-.88.63-.59.94-1.39.94-2.4s-.31-1.81-.94-2.4c-.63-.59-1.59-.88-2.9-.88h-7.64l4.2-4.28v15.12Z"/>
      <path class="cls-1" d="M29.35,28.64V.64h13.08c4.29,0,7.56.95,9.8,2.84,2.24,1.89,3.36,4.47,3.36,7.72,0,2.16-.52,4.02-1.56,5.58-1.04,1.56-2.51,2.75-4.42,3.58-1.91.83-4.17,1.24-6.78,1.24h-8.24l4.2-3.88v10.92h-9.44ZM38.79,18.76l-4.2-4.28h7.64c1.31,0,2.27-.29,2.9-.88.63-.59.94-1.39.94-2.4s-.31-1.81-.94-2.4c-.63-.59-1.59-.88-2.9-.88h-7.64l4.2-4.28v15.12ZM46.11,28.64l-6.88-10.2h10l6.96,10.2h-10.08Z"/>
      <path class="cls-1" d="M73.87,29.28c-2.29,0-4.41-.36-6.34-1.08-1.93-.72-3.61-1.74-5.02-3.06-1.41-1.32-2.51-2.87-3.3-4.66-.79-1.79-1.18-3.73-1.18-5.84s.39-4.09,1.18-5.86,1.89-3.32,3.3-4.64c1.41-1.32,3.09-2.34,5.02-3.06,1.93-.72,4.03-1.08,6.3-1.08s4.4.36,6.32,1.08c1.92.72,3.59,1.74,5,3.06,1.41,1.32,2.51,2.87,3.3,4.64.79,1.77,1.18,3.73,1.18,5.86s-.39,4.05-1.18,5.84c-.79,1.79-1.89,3.34-3.3,4.66-1.41,1.32-3.08,2.34-5,3.06-1.92.72-4.01,1.08-6.28,1.08ZM73.83,21.64c.88,0,1.7-.16,2.46-.48.76-.32,1.43-.78,2-1.38.57-.6,1.02-1.33,1.34-2.2.32-.87.48-1.85.48-2.94s-.16-2.07-.48-2.94c-.32-.87-.77-1.6-1.34-2.2-.57-.6-1.24-1.06-2-1.38-.76-.32-1.58-.48-2.46-.48s-1.7.16-2.46.48c-.76.32-1.43.78-2,1.38-.57.6-1.02,1.33-1.34,2.2-.32.87-.48,1.85-.48,2.94s.16,2.07.48,2.94c.32.87.77,1.6,1.34,2.2.57.6,1.24,1.06,2,1.38.76.32,1.58.48,2.46.48Z"/>
      <path class="cls-1" d="M17.26,67c-2.48,0-4.77-.39-6.88-1.17-2.11-.78-3.94-1.9-5.49-3.34-1.55-1.44-2.75-3.16-3.61-5.13-.86-1.98-1.28-4.16-1.28-6.55s.43-4.57,1.28-6.55,2.06-3.69,3.61-5.13c1.55-1.44,3.38-2.56,5.49-3.34,2.11-.78,4.4-1.17,6.88-1.17,3.04,0,5.73.53,8.08,1.59s4.29,2.6,5.82,4.6l-6.59,5.89c-.91-1.15-1.92-2.04-3.03-2.68-1.11-.63-2.35-.95-3.74-.95-1.09,0-2.08.18-2.97.53-.88.35-1.64.87-2.28,1.55-.64.68-1.13,1.5-1.48,2.46-.35.96-.53,2.03-.53,3.21s.18,2.25.53,3.21c.35.96.85,1.78,1.48,2.46.63.68,1.39,1.2,2.28,1.55.88.35,1.87.53,2.97.53,1.39,0,2.63-.32,3.74-.95,1.11-.63,2.12-1.53,3.03-2.68l6.59,5.89c-1.53,1.98-3.47,3.5-5.82,4.58-2.35,1.08-5.04,1.62-8.08,1.62Z"/>
      <path class="cls-1" d="M33.86,66.29v-30.98h25.18v7.88h-14.92v15.23h15.49v7.88h-25.76ZM43.42,54.34v-7.53h13.81v7.53h-13.81Z"/>
      <path class="cls-1" d="M75.2,67c-2.6,0-5.1-.29-7.52-.88-2.42-.59-4.41-1.36-5.98-2.3l3.36-7.61c1.47.86,3.12,1.54,4.93,2.06,1.82.52,3.58.77,5.29.77,1,0,1.79-.07,2.37-.2.58-.13,1-.32,1.26-.57.26-.25.4-.55.4-.91,0-.56-.31-1-.93-1.33-.62-.32-1.44-.6-2.46-.82s-2.13-.46-3.34-.71-2.43-.58-3.65-1c-1.22-.41-2.35-.96-3.36-1.64s-1.84-1.57-2.46-2.68-.93-2.49-.93-4.14c0-1.92.54-3.67,1.62-5.25,1.08-1.58,2.68-2.84,4.82-3.78,2.14-.94,4.8-1.42,7.99-1.42,2.09,0,4.16.22,6.2.66,2.04.44,3.87,1.12,5.49,2.04l-3.14,7.57c-1.53-.77-3.02-1.34-4.45-1.73-1.43-.38-2.83-.58-4.18-.58-1,0-1.8.09-2.39.27-.59.18-1.01.41-1.26.71-.25.3-.38.62-.38.97,0,.53.31.95.93,1.26.62.31,1.44.57,2.46.77s2.14.43,3.36.66c1.22.24,2.44.56,3.65.97,1.21.41,2.32.96,3.34,1.64,1.02.68,1.84,1.56,2.46,2.65.62,1.09.93,2.45.93,4.07,0,1.89-.54,3.62-1.62,5.2-1.08,1.58-2.68,2.85-4.8,3.81s-4.8,1.44-8.01,1.44Z"/>
    </g>
    <g>
      <path class="cls-1" d="M57.14,85.59v-11.2h4.02c.94,0,1.74.15,2.42.45.67.3,1.19.73,1.55,1.29.36.56.54,1.24.54,2.04s-.18,1.45-.54,2.02c-.36.57-.88,1-1.55,1.3-.67.3-1.48.45-2.42.45h-3.57l.37-.38v4.05h-.82ZM57.96,81.59l-.37-.4h3.57c1.21,0,2.12-.26,2.74-.79.62-.53.94-1.27.94-2.23s-.31-1.72-.94-2.25-1.54-.79-2.74-.79h-3.57l.37-.4v6.86Z"/>
      <path class="cls-1" d="M68.42,85.59v-11.2h4.02c1.41,0,2.51.33,3.31.99.8.66,1.2,1.59,1.2,2.78,0,.78-.18,1.45-.54,2.01-.36.56-.88.99-1.55,1.3-.67.3-1.48.46-2.42.46h-3.57l.37-.38v4.05h-.82ZM69.24,81.59l-.37-.38h3.57c1.21,0,2.12-.27,2.74-.8s.94-1.28.94-2.24-.31-1.72-.94-2.25-1.54-.79-2.74-.79h-3.57l.37-.4v6.86ZM76.2,85.59l-2.91-4.06h.93l2.91,4.06h-.93Z"/>
      <path class="cls-1" d="M84.69,85.67c-.83,0-1.6-.14-2.31-.42-.71-.28-1.33-.68-1.86-1.2-.53-.52-.94-1.12-1.22-1.81-.29-.69-.43-1.44-.43-2.25s.14-1.56.43-2.25c.29-.69.7-1.29,1.22-1.81.53-.52,1.15-.92,1.86-1.2.71-.28,1.48-.42,2.31-.42s1.6.14,2.31.42c.71.28,1.33.68,1.85,1.19.52.51.93,1.11,1.22,1.8.29.69.44,1.44.44,2.26s-.15,1.58-.44,2.26c-.29.69-.7,1.29-1.22,1.8-.52.51-1.14.91-1.85,1.19-.71.28-1.48.42-2.31.42ZM84.69,84.92c.71,0,1.38-.12,1.98-.37.61-.25,1.14-.59,1.58-1.04.45-.45.8-.97,1.05-1.57.25-.6.38-1.25.38-1.95s-.13-1.37-.38-1.96c-.25-.59-.6-1.11-1.05-1.56-.45-.45-.98-.79-1.58-1.04-.61-.25-1.27-.37-1.98-.37s-1.38.12-1.98.37c-.61.25-1.14.59-1.59,1.04-.45.45-.81.97-1.06,1.56-.25.59-.38,1.25-.38,1.96s.12,1.35.38,1.95c.25.6.6,1.12,1.06,1.57.45.45.98.79,1.59,1.04.61.25,1.27.37,1.98.37Z"/>
    </g>
    <g>
      <path class="cls-1" d="M3.2,104.44l6.09-30.44h3.17l-6.09,30.44h-3.17Z"/>
      <path class="cls-1" d="M11.46,104.44l20-30.44h3.17l7.83,30.44h-3.22l-7.13-28.66h1.3l-18.48,28.66h-3.48ZM18.55,96.31l1.48-2.61h17.7l.48,2.61h-19.66Z"/>
    </g>
  </g>
</svg>