<?xml version="1.0" encoding="UTF-8"?>
<svg id="Capa_2" data-name="Capa 2" xmlns="http://www.w3.org/2000/svg" viewBox="0 0 241.46 39.11">
  <defs>
    <style>
      .cls-1 {
        fill: #374151;
      }
    </style>
  </defs>
  <g id="Capa_1-2" data-name="Capa 1">
    <g>
      <path class="cls-1" d="M0,38.47V10.47h13.48c2.61,0,4.87.43,6.78,1.28,1.91.85,3.38,2.07,4.42,3.66,1.04,1.59,1.56,3.46,1.56,5.62s-.52,4.03-1.56,5.6-2.51,2.79-4.42,3.66c-1.91.87-4.17,1.3-6.78,1.3H5.24l4.2-4.04v10.92H0ZM9.44,28.59l-4.2-4.28h7.64c1.31,0,2.27-.29,2.9-.88.63-.59.94-1.39.94-2.4s-.31-1.81-.94-2.4c-.63-.59-1.59-.88-2.9-.88h-7.64l4.2-4.28v15.12Z"/>
      <path class="cls-1" d="M29.32,38.47V10.47h13.08c4.29,0,7.56.95,9.8,2.84s3.36,4.47,3.36,7.72c0,2.16-.52,4.02-1.56,5.58-1.04,1.56-2.51,2.75-4.42,3.58-1.91.83-4.17,1.24-6.78,1.24h-8.24l4.2-3.88v10.92h-9.44ZM38.76,28.59l-4.2-4.28h7.64c1.31,0,2.27-.29,2.9-.88.63-.59.94-1.39.94-2.4s-.31-1.81-.94-2.4c-.63-.59-1.59-.88-2.9-.88h-7.64l4.2-4.28v15.12ZM46.08,38.47l-6.88-10.2h10l6.96,10.2h-10.08Z"/>
      <path class="cls-1" d="M73.84,39.11c-2.29,0-4.41-.36-6.34-1.08s-3.61-1.74-5.02-3.06c-1.41-1.32-2.51-2.87-3.3-4.66-.79-1.79-1.18-3.73-1.18-5.84s.39-4.09,1.18-5.86c.79-1.77,1.89-3.32,3.3-4.64,1.41-1.32,3.09-2.34,5.02-3.06,1.93-.72,4.03-1.08,6.3-1.08s4.4.36,6.32,1.08c1.92.72,3.59,1.74,5,3.06,1.41,1.32,2.51,2.87,3.3,4.64.79,1.77,1.18,3.73,1.18,5.86s-.39,4.05-1.18,5.84c-.79,1.79-1.89,3.34-3.3,4.66-1.41,1.32-3.08,2.34-5,3.06s-4.01,1.08-6.28,1.08ZM73.8,31.47c.88,0,1.7-.16,2.46-.48.76-.32,1.43-.78,2-1.38.57-.6,1.02-1.33,1.34-2.2.32-.87.48-1.85.48-2.94s-.16-2.07-.48-2.94c-.32-.87-.77-1.6-1.34-2.2-.57-.6-1.24-1.06-2-1.38-.76-.32-1.58-.48-2.46-.48s-1.7.16-2.46.48c-.76.32-1.43.78-2,1.38-.57.6-1.02,1.33-1.34,2.2-.32.87-.48,1.85-.48,2.94s.16,2.07.48,2.94c.32.87.77,1.6,1.34,2.2.57.6,1.24,1.06,2,1.38.76.32,1.58.48,2.46.48Z"/>
      <path class="cls-1" d="M107.52,39.11c-2.24,0-4.31-.35-6.22-1.06-1.91-.71-3.56-1.71-4.96-3.02-1.4-1.31-2.49-2.85-3.26-4.64-.77-1.79-1.16-3.76-1.16-5.92s.39-4.13,1.16-5.92,1.86-3.33,3.26-4.64c1.4-1.31,3.05-2.31,4.96-3.02,1.91-.71,3.98-1.06,6.22-1.06,2.75,0,5.18.48,7.3,1.44s3.87,2.35,5.26,4.16l-5.96,5.32c-.83-1.04-1.74-1.85-2.74-2.42-1-.57-2.13-.86-3.38-.86-.99,0-1.88.16-2.68.48-.8.32-1.49.79-2.06,1.4s-1.02,1.35-1.34,2.22c-.32.87-.48,1.83-.48,2.9s.16,2.03.48,2.9c.32.87.77,1.61,1.34,2.22s1.26,1.08,2.06,1.4c.8.32,1.69.48,2.68.48,1.25,0,2.38-.29,3.38-.86,1-.57,1.91-1.38,2.74-2.42l5.96,5.32c-1.39,1.79-3.14,3.17-5.26,4.14-2.12.97-4.55,1.46-7.3,1.46Z"/>
      <path class="cls-1" d="M122.52,38.47V10.47h22.76v7.12h-13.48v13.76h14v7.12h-23.28ZM131.16,27.67v-6.8h12.48v6.8h-12.48Z"/>
      <path class="cls-1" d="M159.88,39.11c-2.35,0-4.61-.27-6.8-.8s-3.99-1.23-5.4-2.08l3.04-6.88c1.33.77,2.82,1.39,4.46,1.86,1.64.47,3.23.7,4.78.7.91,0,1.62-.06,2.14-.18.52-.12.9-.29,1.14-.52s.36-.5.36-.82c0-.51-.28-.91-.84-1.2-.56-.29-1.3-.54-2.22-.74s-1.93-.41-3.02-.64c-1.09-.23-2.19-.53-3.3-.9-1.11-.37-2.12-.87-3.04-1.48s-1.66-1.42-2.22-2.42c-.56-1-.84-2.25-.84-3.74,0-1.73.49-3.31,1.46-4.74.97-1.43,2.43-2.57,4.36-3.42,1.93-.85,4.34-1.28,7.22-1.28,1.89,0,3.76.2,5.6.6,1.84.4,3.49,1.01,4.96,1.84l-2.84,6.84c-1.39-.69-2.73-1.21-4.02-1.56-1.29-.35-2.55-.52-3.78-.52-.91,0-1.63.08-2.16.24s-.91.37-1.14.64c-.23.27-.34.56-.34.88,0,.48.28.86.84,1.14.56.28,1.3.51,2.22.7s1.93.39,3.04.6c1.11.21,2.21.51,3.3.88,1.09.37,2.1.87,3.02,1.48s1.66,1.41,2.22,2.4c.56.99.84,2.21.84,3.68,0,1.71-.49,3.27-1.46,4.7-.97,1.43-2.42,2.57-4.34,3.44s-4.33,1.3-7.24,1.3Z"/>
      <path class="cls-1" d="M175.92,38.47l5.6-28h2.92l-5.6,28h-2.92Z"/>
      <path class="cls-1" d="M183.52,38.47l18.4-28h2.92l7.2,28h-2.96l-6.56-26.36h1.2l-17,26.36h-3.2ZM190.04,30.99l1.36-2.4h16.28l.44,2.4h-18.08Z"/>
    </g>
    <g>
      <path class="cls-1" d="M208.08,11.28V.08h4.02c.94,0,1.74.15,2.42.45.67.3,1.19.73,1.55,1.29.36.56.54,1.24.54,2.04s-.18,1.45-.54,2.02c-.36.57-.88,1-1.55,1.3-.67.3-1.48.45-2.42.45h-3.57l.37-.38v4.05h-.82ZM208.9,7.28l-.37-.4h3.57c1.21,0,2.12-.26,2.74-.79.62-.53.94-1.27.94-2.23s-.31-1.72-.94-2.25-1.54-.79-2.74-.79h-3.57l.37-.4v6.86Z"/>
      <path class="cls-1" d="M219.36,11.28V.08h4.02c1.41,0,2.51.33,3.31.99.8.66,1.2,1.59,1.2,2.78,0,.78-.18,1.45-.54,2.01-.36.56-.88.99-1.55,1.3-.67.3-1.48.46-2.42.46h-3.57l.37-.38v4.05h-.82ZM220.18,7.28l-.37-.38h3.57c1.21,0,2.12-.27,2.74-.8s.94-1.28.94-2.24-.31-1.72-.94-2.25-1.54-.79-2.74-.79h-3.57l.37-.4v6.86ZM227.14,11.28l-2.91-4.06h.93l2.91,4.06h-.93Z"/>
      <path class="cls-1" d="M235.64,11.36c-.83,0-1.6-.14-2.31-.42-.71-.28-1.33-.68-1.86-1.2-.53-.52-.94-1.12-1.22-1.81-.29-.69-.43-1.44-.43-2.25s.14-1.56.43-2.25c.29-.69.7-1.29,1.22-1.81.53-.52,1.15-.92,1.86-1.2.71-.28,1.48-.42,2.31-.42s1.6.14,2.31.42c.71.28,1.33.68,1.85,1.19.52.51.93,1.11,1.22,1.8.29.69.44,1.44.44,2.26s-.15,1.58-.44,2.26c-.29.69-.7,1.29-1.22,1.8-.52.51-1.14.91-1.85,1.19-.71.28-1.48.42-2.31.42ZM235.64,10.61c.71,0,1.38-.12,1.98-.37.61-.25,1.14-.59,1.58-1.04.45-.45.8-.97,1.05-1.57.25-.6.38-1.25.38-1.95s-.12-1.37-.38-1.96c-.25-.59-.6-1.11-1.05-1.56s-.98-.79-1.58-1.04c-.61-.25-1.27-.37-1.98-.37s-1.38.12-1.98.37c-.61.25-1.14.59-1.59,1.04-.45.45-.81.97-1.06,1.56-.25.59-.38,1.25-.38,1.96s.13,1.35.38,1.95c.25.6.6,1.12,1.06,1.57.45.45.98.79,1.59,1.04.61.25,1.27.37,1.98.37Z"/>
    </g>
  </g>
</svg>